<svg xmlns="http://www.w3.org/2000/svg" xmlns:xlink="http://www.w3.org/1999/xlink" xml:space="preserve" version="1.1" style="shape-rendering:geometricPrecision; text-rendering:geometricPrecision; image-rendering:optimizeQuality; fill-rule:evenodd; clip-rule:evenodd" viewBox="1987.31 853 7718.37 6561">
 <defs>
  <style type="text/css">
   <![CDATA[
    .fil5 {fill:none}
    .fil8 {fill:black}
    .fil2 {fill:#1E2935}
    .fil7 {fill:#4F4B4B}
    .fil4 {fill:#E5A289}
    .fil3 {fill:#E6B39A}
    .fil1 {fill:#F2F2F2}
    .fil0 {fill:white}
    .fil6 {fill:#E26E58;fill-opacity:0.250980}
   ]]>
  </style>
 </defs>
 <g id="Layer_x0020_1">
  <metadata id="CorelCorpID_0Corel-Layer"/>
  <g id="_2391912827744">
   <path class="fil0" d="M8654 7414l25 0c73,-104 151,-206 224,-310 49,-67 111,-155 145,-233 58,-43 49,-119 18,-179 -52,-102 -208,-226 -295,-305 -182,-168 -358,-351 -564,-490 -70,-48 -210,-104 -236,18 -22,43 -41,88 -57,133 -17,48 -31,97 -45,146 -44,-21 -93,-42 -151,-64 -108,-42 -222,-82 -339,-119 -47,-148 -119,-321 -198,-436 -95,-139 -191,-175 -346,-223 -228,-72 -430,-110 -671,-112 -326,-3 -650,50 -975,69 -104,5 -205,4 -309,4 -62,0 -135,0 -194,24 -116,48 -160,184 -191,295 -27,102 -49,223 -83,327 -169,45 -336,93 -498,143 -53,17 -100,31 -142,46 -9,-32 -19,-63 -30,-94 -16,-45 -35,-91 -57,-134 -26,-122 -167,-65 -237,-18 -205,140 -381,323 -563,490 -87,80 -243,203 -295,306 -31,60 -40,135 18,179 33,78 96,165 144,233 68,96 140,190 208,286 -2,6 -3,12 -3,18l16 0 1371 0 4310 0zm-2169 -2916l155 -161c-258,36 -576,50 -828,-13 -423,-105 -347,-233 -478,-28l61 86 318 84 -254 -3c38,43 79,81 133,119 255,179 585,242 880,137l-6 -148 -144 -28c-75,-15 18,10 163,-45z"/>
   <path class="fil1" d="M5885 5704c-499,66 -871,364 -831,667 39,303 762,372 1261,307 499,-65 585,-241 546,-544 -40,-303 -477,-495 -976,-430z"/>
   <path class="fil2" d="M7034 5488c43,28 80,65 118,121 88,128 175,355 217,506 42,151 38,226 -148,324 -120,64 -323,138 -509,200 18,15 36,31 53,49 91,92 179,216 268,340l1 2 0 0 0 0c16,24 9,57 -15,74 -25,16 -58,9 -74,-15l0 0 0 0c-85,-121 -171,-241 -255,-326 -34,-34 -68,-63 -101,-84 -55,17 -106,32 -149,45 -211,60 -273,73 -452,62 -38,-2 -81,-5 -128,-10 -127,-13 -294,-34 -461,-58 -21,17 -42,36 -63,57 -84,85 -169,205 -255,325l0 0 0 0c-16,25 -49,31 -74,15 -24,-16 -31,-49 -14,-74l0 0 0 0 1 -1c88,-124 176,-248 267,-340l1 -1c-128,-19 -251,-38 -349,-54 -257,-41 -342,-60 -438,-62 -95,-3 -200,11 -232,-49 -32,-60 9,-194 56,-277 46,-82 98,-113 139,-211 41,-98 72,-262 108,-394 34,-124 73,-219 152,-259 19,4 25,15 37,37 25,43 74,129 130,231 381,687 659,536 979,798 35,29 62,54 83,76 97,-35 190,-72 212,-112 97,-181 231,-395 428,-584 143,-137 319,-262 467,-351zm-4405 1372c-39,-26 -52,-78 -16,-150 48,-94 208,-224 290,-298 178,-164 360,-352 560,-488 113,-76 184,-62 196,5 16,30 38,77 58,134 23,66 44,146 72,240 27,94 62,201 126,354 64,153 158,351 270,542 43,73 89,145 132,215l-1312 0c-76,-109 -165,-226 -231,-320 -78,-108 -124,-184 -145,-234zm3816 -119c45,-13 92,-27 142,-42 33,22 63,49 90,77 94,94 176,214 253,323 22,32 66,41 99,19 32,-21 41,-66 19,-98l-1 -2c-82,-117 -169,-241 -269,-342 -10,-10 -19,-19 -29,-28 171,-57 347,-122 481,-193 172,-91 207,-162 156,-345 -4,-15 -9,-30 -13,-46 128,40 244,79 336,116 61,23 111,45 155,67l-15 51c-36,121 -76,236 -125,352 -77,184 -168,367 -269,539 -43,72 -92,148 -140,225l-131 0 -2840 0c0,-4 -2,-9 -4,-14 -44,-71 -89,-142 -132,-214 -101,-172 -191,-355 -269,-539 -48,-116 -89,-231 -125,-352 -9,-31 -17,-62 -26,-93 42,-15 90,-31 147,-49 130,-40 305,-91 497,-141 -3,9 -7,18 -11,27 -35,85 -95,133 -138,210 -39,69 -95,219 -56,293 40,74 177,56 248,58 135,4 301,41 436,63 103,17 208,33 314,49 -91,97 -170,211 -246,318l-1 1c-22,33 -13,77 20,99 32,22 76,13 98,-19 77,-109 159,-229 253,-324 17,-17 35,-33 53,-49 398,56 658,114 1043,3zm2589 122c39,-26 53,-78 16,-150 -48,-94 -208,-224 -289,-298 -179,-164 -361,-352 -561,-488 -113,-76 -184,-62 -196,5 -16,30 -37,77 -58,134 -23,66 -44,146 -71,240 -28,94 -62,201 -127,354 -64,153 -158,351 -270,542 -42,72 -87,143 -130,212l1312 0c75,-108 164,-224 229,-317 78,-108 124,-184 145,-234zm-4313 -1480c87,-30 340,-14 479,-21 138,-8 64,-3 85,-4 55,135 62,343 66,426 5,84 3,71 4,103 -76,47 -140,101 -189,160 -106,-99 -189,-222 -285,-394 -43,-78 -86,-155 -130,-232 -9,-16 -17,-29 -30,-38zm1526 319c-20,-112 4,-256 50,-405 237,16 407,66 533,106 75,23 135,43 187,74 -151,92 -303,201 -434,322 -85,-43 -224,-80 -336,-97z"/>
   <path class="fil3" d="M7332 3687c52,-53 97,-97 160,-102 62,-4 141,30 171,96 29,66 9,164 -43,275 -53,110 -137,232 -196,344 -59,111 -92,212 -146,264 -53,51 -126,54 -179,27 -53,-28 -85,-86 -71,-212 14,-126 76,-321 135,-449 60,-128 117,-190 169,-243z"/>
   <path class="fil4" d="M7332 3687c52,-53 97,-97 160,-102 62,-4 141,30 171,96 29,66 9,164 -43,275 -53,110 -137,232 -196,344 -59,111 -92,212 -146,264 -53,51 -126,54 -179,27 -53,-28 -85,-86 -71,-212 14,-126 76,-321 135,-449 60,-128 117,-190 169,-243z"/>
   <path class="fil3" d="M5635 5094c25,64 117,126 236,153 118,27 228,10 279,-36 -65,24 -165,27 -272,3 -106,-24 -195,-70 -243,-120zm-1185 -1927c-30,-45 -62,-81 -109,-95 -60,-18 -145,-2 -188,56 -43,58 -45,158 -18,277 27,119 83,257 116,379 33,122 44,227 85,289 40,62 111,81 169,66 173,614 617,631 765,1208 41,161 35,361 10,515 -15,90 -35,164 -45,225 234,210 437,190 661,374 9,7 16,13 24,20 49,-9 94,-24 134,-46 74,-41 123,-91 141,-149 18,-58 7,-124 10,-254 3,-130 21,-324 137,-487 205,-289 434,-249 724,-474 398,-308 472,-658 375,-1110 8,-35 16,-69 25,-103 -35,82 -81,161 -146,215 -140,115 -370,114 -527,99 -145,-14 -228,-40 -288,-96 -9,4 -19,7 -29,10 136,-125 -16,-286 -174,-233 19,-16 44,-28 71,-33l-4 -20c-23,-97 -31,-193 -29,-276 0,-33 2,-63 4,-92l-242 -30c-3,20 -6,41 -11,63 -15,84 -42,178 -85,271 -43,93 -101,185 -175,237 -75,52 -165,64 -325,48l-8 -1c-3,44 -19,95 -49,143 11,4 25,10 43,18 67,28 192,84 326,118 135,33 280,45 436,41 156,-3 324,-21 411,-34 87,-13 94,-21 94,-21 0,0 -7,8 -49,36 -41,29 -118,77 -162,128 -44,51 -56,104 -58,153 -2,49 5,93 8,115 4,22 4,21 -63,40 -67,18 -201,55 -366,36 -165,-20 -360,-96 -492,-189 -132,-92 -200,-200 -236,-253 -23,-32 -34,-43 -35,-53 -64,32 -128,35 -170,1 -12,-9 -22,-22 -29,-35l1 0c68,55 203,3 300,-117 34,-42 59,-86 74,-129 -158,-19 -371,-68 -482,-204 -117,-144 -120,-385 -139,-520 -18,-135 -51,-163 -76,-180 -25,-18 -40,-23 -56,-29 2,-39 4,-78 5,-102 1,-24 1,-33 86,-48 85,-16 253,-38 426,-46 173,-9 349,-3 493,34 144,36 256,105 313,162 58,57 62,103 61,163 0,13 0,26 -1,40l248 31 1 -8c12,-58 24,-101 91,-145 66,-43 187,-87 333,-94 145,-8 316,22 480,64 133,34 262,76 348,108 5,-39 10,-77 12,-115l1 -4 0 -3 0 -7 1 -7 0 -3 0 -4 1 -7 0 -7 0 -2 0 -5 0 -7 1 -7 0 0 0 -7 0 -7 0 -6 0 -1c0,-12 0,-24 0,-36l0 -2 -1 -5 0 -13 0 -1 0 -1 0 -6 -1 -7 0 -7 0 0 -1 -19 -1 -2 -1 -14 0 -4 -2 -20 -1 -4 -2 -14 0 -2 -3 -19 0 -1 -3 -19 0 -2 -3 -14 -1 -4 -3 -17 -1 -3c-3,-13 -6,-26 -9,-39l0 -1c-8,-31 -18,-61 -30,-92 -45,43 -93,87 -141,130 49,-93 98,-186 62,-293 -22,-69 -79,-143 -168,-220 18,97 12,160 6,224 -59,-134 -119,-268 -223,-382 -193,-121 -452,-242 -713,-277 -276,-36 -554,25 -787,96 -24,7 -47,14 -70,22 28,10 57,19 85,25 106,25 207,20 308,14 -44,16 -88,32 -172,48 -84,16 -208,33 -327,23 -50,-5 -100,-14 -145,-25 -89,31 -165,56 -225,68 -86,16 -140,6 -181,-16 22,41 42,77 57,101 30,47 39,46 23,128 -16,82 -58,248 -131,398 -73,150 -176,286 -202,435 -26,150 25,313 34,426 6,74 -7,126 -35,137l0 -4 0 -1 -1 -7 0 -1 0 -4 0 -4 0 0 -1 -4 0 -4 0 0 0 -5 -1 -2 0 -2 -2 -21 0 -1 -1 -12 0 -4 0 0 -1 -4 0 -4 0 -1 -1 -4 0 -2 0 -2 -1 -4 0 -2 0 -3 -1 -4 0 -1 0 -3 -1 -4 0 -1 0 -3 -1 -5 0 0 0 -4 -1 -3 0 -5 -1 -3 0 -1 -1 -6 0 -3 -1 -4 0 -1 0 -3 -1 -4 0 -1 0 -3 -1 -4 0 0 -1 -4 0 -3 0 -1 -1 -4 0 -3 0 -1 -1 -4 -1 -2 0 -2 0 -4 -1 -1 0 -3 -1 -4 0 0 0 -3 -1 -4 0 -1 -1 -3 0 -4 -1 0 0 -4 -1 -3 0 0 -1 -4 0 -2 0 -2 -1 -4 0 -1 -1 -2 -1 -4 0 -1 0 -2 -1 -4 0 -1 -1 -3 -1 -3c-30,-138 -72,-211 -111,-274l-1 -1 0 0 0 -1 -1 -1 0 0 0 0 -1 -1 0 -1 0 0 -1 -1 0 0 0 0 0 -1 -1 -1 0 0 -1 -1 0 0 0 -1 0 0 -1 -1 0 0 0 -1 0 0 -1 -1 0 0 -1 -1 0 0 0 -1 0 0 -1 -1 0 0 -1 -1 0 0 0 -1 0 0 -1 -1 0 0 0 -1 -1 0 0 -1 -1 -1 0 0 0 -1 -1 0 0 0 0 -1 -1 -1 0 0 0 -1 0 0 -1 0 0 -1 0 -1 -1 0 0 -1 0 0 -1 0 0 -1 0 -1 -1 0 0 -1 0 0 0 0 -1 -1 0 0 -1 -1 0 0 0 -1 0 0 -1 -1 0 0 -1 -1 0 0 0 0 0 -1 -1 -1zm-1477 3478c166,-32 342,-134 434,-254 92,-121 101,-259 102,-375 1,-116 -5,-209 18,-282 22,-73 73,-126 125,-178 52,-53 106,-106 132,-157 26,-51 26,-100 -28,-131 -54,-31 -160,-44 -260,-18 -99,26 -191,91 -242,142 -51,52 -61,89 -69,119 -8,30 -14,53 -74,-17 -60,-70 -175,-233 -257,-309 -81,-76 -130,-65 -164,-38 -34,27 -53,69 -51,114 2,45 25,93 38,122 14,29 17,39 -10,24 -27,-14 -84,-52 -129,-66 -45,-13 -79,-1 -106,19 -27,21 -47,49 -49,80 -2,31 15,64 25,83 10,20 13,24 -2,19 -16,-5 -49,-20 -84,-22 -36,-1 -75,11 -109,33 -35,22 -65,53 -65,90 0,37 30,80 30,95 -1,15 -31,2 -65,-4 -33,-5 -70,-3 -97,24 -26,26 -43,77 -12,172 30,95 108,236 198,355 90,118 193,215 322,284 128,68 284,107 449,76zm5747 0c-166,-32 -342,-134 -434,-254 -92,-121 -101,-259 -102,-375 -1,-116 5,-209 -18,-282 -22,-73 -73,-126 -125,-178 -52,-53 -106,-106 -132,-157 -27,-51 -26,-100 28,-131 54,-31 160,-44 260,-18 99,26 191,91 242,142 51,52 61,89 69,119 8,30 14,53 74,-17 60,-70 175,-233 256,-309 82,-76 131,-65 165,-38 34,27 53,69 51,114 -2,45 -25,93 -39,122 -13,29 -16,39 11,24 27,-14 84,-52 129,-66 45,-13 79,-1 106,19 27,21 47,49 49,80 2,31 -15,64 -25,83 -10,20 -13,24 2,19 16,-5 49,-20 84,-22 36,-1 75,11 109,33 35,22 65,53 65,90 0,37 -30,80 -30,95 1,15 31,2 65,-4 33,-5 70,-3 97,24 26,26 43,77 12,172 -30,95 -108,236 -198,355 -91,118 -193,215 -322,284 -128,68 -284,107 -449,76zm-2936 -3185c-72,-116 -227,-187 -355,-213 -60,-13 -118,-21 -158,-26l0 0c-35,-4 -56,-6 -71,-7 -17,0 -26,1 -35,1 -17,2 -29,17 -28,34 2,17 17,30 34,28 7,-1 14,-1 25,-1 17,66 47,128 88,163 47,39 113,42 144,18 30,-22 56,-85 65,-132 16,5 32,10 48,15 47,15 89,34 128,54 38,20 77,43 115,66zm784 565c6,-11 11,-23 14,-36 16,-71 -39,-145 -125,-167 -4,-13 -7,-27 -10,-40 -20,-84 -29,-171 -27,-257 1,-67 8,-133 20,-199 9,-46 14,-66 55,-93 79,-51 201,-77 294,-81 148,-8 312,25 456,61 100,26 181,55 241,82 73,32 79,34 -7,280 -48,137 -92,339 -210,436 -117,96 -325,95 -468,81 -75,-7 -171,-18 -233,-67zm-1626 -742c20,147 23,359 121,479 97,120 306,162 451,177 85,9 196,19 270,-33 65,-46 115,-133 148,-204 36,-80 63,-166 79,-252 13,-67 20,-135 20,-203 1,-48 0,-68 -36,-104 -68,-68 -185,-118 -276,-141 -147,-38 -318,-39 -469,-32 -105,5 -192,18 -258,32 -79,17 -86,18 -50,281zm147 -534c23,-14 47,-26 69,-36 102,-45 221,-71 333,-70 126,1 262,35 379,81 72,27 179,76 238,126 0,1 1,1 2,2 -27,23 -64,46 -93,64 -4,1 -11,6 -15,7 -8,1 -36,-12 -43,-16 -104,-49 -195,-105 -307,-139 -113,-35 -228,-42 -345,-39 -73,1 -146,5 -218,20zm2223 347c-10,-19 -22,-37 -33,-52 -51,-70 -118,-126 -188,-155 -80,-32 -175,-35 -261,-23 -53,8 -134,25 -186,58 0,0 -1,1 -1,1 10,29 26,61 40,85 2,3 5,10 7,12 5,2 26,-3 32,-4 79,-20 152,-49 232,-52 80,-3 155,21 227,54 46,20 91,43 131,76zm-673 472c92,-89 237,-108 348,-94 51,7 100,17 133,24l1 0c29,7 47,12 59,16 13,5 20,8 27,12 13,6 18,25 12,40 -6,16 -22,23 -35,16 -6,-3 -11,-6 -21,-9 -11,-4 -27,-8 -54,-14l0 0c-31,-7 -74,-16 -123,-22 -34,62 -80,116 -128,136 -49,21 -99,5 -119,-32 -14,-25 -14,-58 -8,-96 -30,6 -61,15 -92,23z"/>
   <circle class="fil4" transform="matrix(-8.67889 -1.97056 -1.97056 8.67889 5035.34 3854)" r="17"/>
   <circle class="fil4" transform="matrix(-8.67889 -1.97056 -1.97056 8.67889 7177.65 4118.62)" r="17"/>
   <path class="fil3" d="M4304 3312c-34,-167 -69,-335 -78,-517 -9,-182 8,-379 82,-547 74,-167 204,-306 273,-386 69,-81 76,-103 103,-75 26,29 72,109 120,197 48,87 98,183 128,231 30,47 39,46 23,128 -16,82 -58,248 -135,396 -77,148 -188,279 -280,372 -92,93 -164,147 -236,201z"/>
   <path class="fil5" d="M4220 3179c20,4 40,8 69,29 30,21 69,59 104,163 36,103 69,272 85,379 15,106 14,149 10,155 -4,7 -9,-23 -20,-50 -11,-27 -28,-51 -45,-65 -17,-15 -34,-20 -48,-9 -13,11 -23,39 -33,66 -26,-83 -51,-166 -77,-250"/>
   <path class="fil6" d="M5731 4825c17,92 96,167 217,185 102,14 195,0 269,-106 -176,39 -342,-5 -486,-79z"/>
   <path class="fil7" d="M4759 3098l-30 -13 7 -118 -247 262c15,25 30,52 44,84l226 -215z"/>
   <g>
    <path class="fil8" d="M5635 5094c25,64 117,126 236,153 118,27 228,10 279,-36 -65,24 -165,27 -272,3 -106,-24 -195,-70 -243,-120zm-2642 262c12,17 24,35 35,55 87,148 99,302 27,344 -69,40 -189,-38 -275,-175 80,145 89,292 19,332 -63,37 -171,-27 -255,-145 82,142 93,290 24,330 -67,39 -185,-38 -268,-173 80,111 182,169 242,134 69,-40 58,-189 -26,-333l-8 -14c8,12 16,24 24,36 81,105 180,159 240,125 72,-42 60,-196 -26,-345l-9 -14c12,17 24,35 36,55l5 10c83,113 188,173 250,136 71,-41 60,-195 -27,-344l-8 -14zm-712 548c11,15 21,31 31,48 77,132 87,268 24,305 -61,35 -169,-35 -245,-158 73,101 166,154 221,122 63,-37 53,-173 -24,-304l-7 -13zm6419 -548c-12,17 -24,35 -35,55 -87,148 -99,302 -27,344 69,40 189,-38 275,-175 -80,145 -89,292 -19,332 63,37 171,-27 255,-145 -82,142 -93,290 -24,330 67,39 185,-38 268,-173 -80,111 -182,169 -242,134 -69,-40 -58,-189 26,-333l8 -14c-8,12 -16,24 -24,36 -81,105 -180,159 -240,125 -72,-42 -60,-196 26,-345l9 -14c-12,17 -24,35 -36,55l-6 10c-82,113 -187,173 -249,136 -72,-41 -60,-195 27,-344l8 -14zm712 548c-11,15 -22,31 -32,48 -76,132 -86,268 -23,305 61,35 169,-35 245,-158 -73,101 -166,154 -221,122 -63,-37 -53,-173 24,-304l7 -13zm-2772 -1567c-41,28 -81,58 -112,94 -19,21 -32,43 -43,67 -28,11 -57,21 -87,27 -35,8 -72,10 -90,11 -18,1 -18,1 14,7 32,7 96,21 130,26 5,1 10,2 14,2 -1,10 -2,20 -3,30 -2,40 2,78 9,118 -13,4 -36,10 -44,12 -121,33 -230,50 -356,35 -158,-19 -349,-92 -480,-184 -54,-38 -95,-76 -133,-119 7,2 14,3 23,4 56,7 160,7 213,6 52,0 52,0 18,-7 -33,-8 -100,-23 -162,-39 -55,-14 -106,-29 -156,-45 -11,-15 -21,-30 -33,-46 -5,-7 -22,-29 -28,-40 1,-2 2,-3 3,-4 21,-32 49,-71 75,-99 19,-20 42,0 69,12 109,47 216,91 331,119 144,36 294,46 443,43 126,-2 259,-13 385,-30zm-856 -877c-72,-116 -227,-187 -355,-213 -60,-13 -118,-21 -158,-26l0 0c-35,-4 -56,-6 -71,-7 -17,0 -26,1 -35,1 -17,2 -29,17 -28,34 2,17 17,30 34,28 7,-1 14,-1 25,-1 17,66 47,128 88,163 47,39 113,42 144,18 30,-22 56,-85 65,-132 16,5 32,10 48,15 47,15 89,34 128,54 38,20 77,43 115,66zm-677 804c7,13 17,26 29,35 42,34 106,31 170,-1 1,10 12,21 35,53 36,53 104,161 236,253 132,93 327,169 492,189 165,19 299,-18 366,-36 67,-19 67,-18 63,-40 -3,-22 -10,-66 -8,-115 2,-49 14,-102 58,-153 44,-51 121,-99 162,-128 42,-28 49,-36 49,-36 0,0 -7,8 -94,21 -87,13 -255,31 -411,34 -156,4 -301,-8 -436,-41 -134,-34 -259,-90 -326,-118 -18,-8 -32,-14 -43,-18 30,-48 46,-99 49,-143l8 1c160,16 250,4 325,-48 74,-52 132,-144 175,-237 43,-93 70,-187 85,-271 5,-22 8,-43 11,-63l242 30c-2,29 -4,59 -4,92 -2,83 6,179 29,276l4 20c-27,5 -52,17 -71,33 158,-53 310,108 174,233 10,-3 20,-6 29,-10 60,56 143,82 288,96 157,15 387,16 527,-99 140,-115 191,-346 235,-472 44,-126 82,-147 108,-159 27,-11 44,-14 60,-16 6,-38 12,-75 15,-99 4,-23 5,-32 -73,-63 -78,-32 -236,-86 -400,-128 -164,-42 -335,-72 -480,-64 -146,7 -267,51 -333,94 -67,44 -79,87 -91,145l-1 8 -248 -31c1,-14 1,-27 1,-40 1,-60 -3,-106 -61,-163 -57,-57 -169,-126 -313,-162 -144,-37 -320,-43 -493,-34 -173,8 -341,30 -426,46 -85,15 -85,24 -86,48 -1,24 -3,63 -5,102 16,6 31,11 56,29 25,17 58,45 76,180 19,135 22,376 139,520 111,136 324,185 482,204 -15,43 -40,87 -74,129 -97,120 -232,172 -300,117l-1 0zm-51 -2134c60,-12 136,-37 225,-68 45,11 95,20 145,25 119,10 243,-7 327,-23 84,-16 128,-32 172,-48 -101,6 -202,11 -308,-14 -28,-6 -57,-15 -85,-25 23,-8 46,-15 70,-22 233,-71 511,-132 787,-96 261,35 520,156 713,277 104,114 164,248 223,382 6,-64 12,-127 -6,-224 89,77 146,151 168,220 36,107 -13,200 -62,293 48,-43 96,-87 141,-130 57,152 70,302 59,452 16,-45 27,-99 36,-154 21,-141 20,-289 9,-383 -1,-7 -2,-14 -3,-21 42,-49 77,-99 100,-150 60,-132 38,-269 7,-364 -31,-94 -73,-145 -93,-171 -21,-26 -21,-26 33,-55 54,-28 163,-86 215,-153 52,-67 48,-145 47,-183 -2,-39 -2,-39 -61,-8 -58,32 -176,95 -308,56 -132,-39 -280,-181 -408,-280 -128,-99 -237,-156 -449,-232 -213,-76 -529,-171 -881,-129 -140,16 -285,55 -423,105 77,-59 162,-106 246,-154 -72,1 -143,1 -260,39 -117,38 -279,114 -410,240 -68,65 -128,143 -178,216 -142,134 -169,253 -177,345 -3,30 -3,58 -2,83 -16,-1 -33,27 -84,86 -69,80 -199,219 -273,386 -74,168 -91,365 -82,547 5,94 16,184 31,273 29,-5 59,-4 84,4 60,18 95,71 134,134 39,63 81,136 111,274 17,75 29,169 35,259 28,-11 41,-63 35,-137 -9,-113 -60,-276 -34,-426 26,-149 129,-285 202,-435 73,-150 115,-316 131,-398 16,-82 7,-81 -23,-128 -15,-24 -35,-60 -57,-101 41,22 95,32 181,16zm1512 1895c6,-11 11,-23 14,-36 16,-71 -39,-145 -125,-167 -4,-13 -7,-27 -10,-40 -20,-84 -29,-171 -27,-257 1,-67 8,-133 20,-199 9,-46 14,-66 55,-93 79,-51 201,-77 294,-81 148,-8 312,25 456,61 100,26 181,55 241,82 73,32 79,34 -7,280 -48,137 -92,339 -210,436 -117,96 -325,95 -468,81 -75,-7 -171,-18 -233,-67zm-1626 -742c20,147 23,359 121,479 97,120 306,162 451,177 85,9 196,19 270,-33 65,-46 115,-133 148,-204 36,-80 63,-166 79,-252 13,-67 20,-135 20,-203 1,-48 0,-68 -36,-104 -68,-68 -185,-118 -276,-141 -147,-38 -318,-39 -469,-32 -105,5 -192,18 -258,32 -79,17 -86,18 -50,281zm147 -534c23,-14 47,-26 69,-36 102,-45 221,-71 333,-70 126,1 262,35 379,81 72,27 179,76 238,126 0,1 1,1 2,2 -27,23 -64,46 -93,64 -4,1 -11,6 -15,7 -8,1 -36,-12 -43,-16 -104,-49 -195,-105 -307,-139 -113,-35 -228,-42 -345,-39 -73,1 -146,5 -218,20zm2223 347c-10,-19 -22,-37 -33,-52 -51,-70 -118,-126 -188,-155 -80,-32 -175,-35 -261,-23 -53,8 -134,25 -186,58 0,0 -1,1 -1,1 10,29 26,61 40,85 2,3 5,10 7,12 5,2 26,-3 32,-4 79,-20 152,-49 232,-52 80,-3 155,21 227,54 46,20 91,43 131,76zm-673 472c92,-89 237,-108 348,-94 51,7 100,17 133,24l1 0c29,7 47,12 59,16 13,5 20,8 27,12 13,6 18,25 12,40 -6,16 -22,23 -35,16 -6,-3 -11,-6 -21,-9 -11,-4 -27,-8 -54,-14l0 0c-31,-7 -74,-16 -123,-22 -34,62 -80,116 -128,136 -49,21 -99,5 -119,-32 -14,-25 -14,-58 -8,-96 -30,6 -61,15 -92,23zm-2434 -392c76,23 91,48 122,91 17,24 35,58 52,109 16,45 32,104 45,164 17,75 31,153 39,212 5,32 8,58 10,79 -4,-7 -8,-15 -13,-21 -8,-13 -18,-23 -27,-31 -11,-9 -23,-16 -34,-18 -12,-2 -23,1 -33,9l-1 1c-8,7 -15,18 -21,31l0 0c-26,-24 -69,-172 -83,-219 -15,79 47,238 67,267 1,5 4,10 9,11 8,3 16,-1 19,-9 5,-13 10,-27 15,-38 4,-9 9,-17 13,-21l1 0c2,-3 6,-3 9,-3 6,1 12,5 19,11 8,7 16,15 23,26 6,9 13,21 18,32l0 2c4,10 8,21 11,30 3,10 6,18 9,24 1,1 2,1 3,2 0,1 1,2 2,2l0 0 1 0c9,5 15,3 21,-6 3,-6 6,-25 3,-62l0 -1c-1,-24 -5,-58 -12,-103 -8,-59 -22,-138 -39,-214 -14,-61 -29,-121 -46,-167 -18,-53 -37,-90 -56,-116 -23,-32 -77,-90 -146,-74zm269 739c1,1 2,1 3,2l-3 -2z"/>
   </g>
  </g>
 </g>
</svg>