<svg xmlns="http://www.w3.org/2000/svg" xmlns:xlink="http://www.w3.org/1999/xlink" xml:space="preserve" version="1.1" style="shape-rendering:geometricPrecision; text-rendering:geometricPrecision; image-rendering:optimizeQuality; fill-rule:evenodd; clip-rule:evenodd" viewBox="2425.28 853.4 6842.45 6560.6">
 <defs>
  <style type="text/css">
   <![CDATA[
    .fil5 {fill:none}
    .fil8 {fill:black}
    .fil1 {fill:#091017}
    .fil2 {fill:#1E2935}
    .fil7 {fill:#4F4B4B}
    .fil4 {fill:#E5A289}
    .fil3 {fill:#E6B39A}
    .fil0 {fill:white}
    .fil6 {fill:#E26E58;fill-opacity:0.250980}
   ]]>
  </style>
 </defs>
 <g id="Layer_x0020_1">
  <metadata id="CorelCorpID_0Corel-Layer"/>
  <g id="_2391659025728">
   <path class="fil0" d="M8335 7414l22 0c65,-92 134,-182 200,-274 42,-60 98,-138 127,-207 52,-39 44,-106 17,-159 -46,-91 -185,-200 -262,-271 -162,-148 -317,-310 -500,-434 -62,-42 -186,-92 -209,16 -20,38 -37,78 -51,118 -15,43 -28,86 -40,130 -39,-19 -82,-38 -133,-58 -96,-37 -197,-72 -301,-105 -27,-85 -63,-179 -104,-262 109,-183 276,-394 433,-536 52,-46 106,-88 158,-133 172,-153 237,-313 269,-539 70,-507 -31,-1258 -166,-1757 -127,-471 -345,-953 -662,-1327 -216,-255 -433,-405 -738,-530 -251,-104 -535,-188 -805,-221 -293,-36 -505,9 -756,174 -312,205 -632,552 -840,863 -190,285 -336,615 -421,948 -67,263 -60,445 -35,713 34,362 87,793 207,1136 102,293 251,503 477,711 116,108 328,266 371,421 20,72 14,147 3,220 -6,25 -13,50 -21,73 -150,40 -298,83 -442,127 -47,15 -88,28 -126,41 -8,-28 -17,-56 -26,-84 -14,-40 -31,-80 -51,-118 -23,-108 -147,-58 -209,-16 -183,123 -339,286 -500,434 -77,71 -216,180 -262,271 -27,53 -35,120 16,159 30,69 86,147 128,206 61,86 124,169 185,254 -2,5 -3,11 -3,16l14 0 1215 0 3821 0zm-1922 -2585l137 -143c-229,32 -511,45 -734,-11 -375,-93 -308,-207 -424,-25l54 76 283 74 -226 -2c33,38 70,72 118,106 226,158 519,214 780,121l-5 -131 -128 -25c-66,-14 16,9 145,-40zm478 822c-48,-27 -102,-45 -168,-65 -202,-64 -381,-98 -595,-100 -289,-2 -576,45 -864,62 -92,5 -182,4 -274,4 -40,0 -84,0 -125,8 -10,-28 -21,-57 -34,-86 -141,-331 -390,-672 -460,-1025 -68,-339 67,-638 204,-940 144,-318 304,-663 561,-907 251,-240 598,-383 948,-370 338,12 693,172 956,380 246,195 395,421 494,717 102,304 144,656 72,972 -75,328 -273,626 -448,909 -88,143 -175,295 -267,441z"/>
   <path class="fil1" d="M4889 6190l1 0c65,82 145,171 251,252 7,-252 324,-489 740,-544 314,-41 600,33 752,176 26,-29 51,-60 77,-93 155,-198 306,-465 482,-750 176,-285 377,-588 452,-921 76,-333 27,-695 -73,-993 -100,-299 -250,-533 -507,-736 -257,-203 -619,-375 -979,-388 -360,-13 -717,133 -977,381 -260,247 -423,596 -569,919 -146,323 -276,619 -207,964 69,344 337,737 463,1032 125,295 109,492 99,635 -2,23 -3,45 -5,66zm1524 -1361l137 -143c-229,32 -511,45 -734,-11 -375,-93 -308,-207 -424,-25l54 76 283 74 -226 -2c33,38 70,72 118,106 226,158 519,214 780,121l-5 -131 -128 -25c-66,-14 16,9 145,-40z"/>
   <path class="fil2" d="M6899 5706c38,25 71,58 105,107 78,115 155,315 192,449 37,134 34,201 -131,288 -106,56 -286,122 -451,177 16,13 31,28 47,44 81,81 159,191 237,301l1 1 0 0 0 0c14,22 9,51 -13,66 -22,14 -51,8 -66,-13l0 0 0 0c-75,-107 -151,-214 -226,-289 -30,-31 -60,-56 -90,-75 -48,15 -93,29 -131,40 -187,54 -242,65 -401,55 -34,-1 -71,-4 -114,-9 -112,-11 -260,-30 -409,-51 -18,15 -36,32 -55,50 -75,76 -150,182 -226,289l0 0 0 0c-14,22 -44,28 -65,13 -22,-14 -28,-44 -14,-65l1 0 0 0 0 -2c79,-110 157,-220 238,-301l0 -1c-114,-17 -222,-33 -309,-47 -228,-37 -304,-54 -388,-56 -85,-2 -178,10 -206,-43 -28,-54 8,-172 49,-245 42,-73 87,-101 124,-187 36,-87 64,-233 96,-350 30,-110 64,-194 134,-230 17,4 22,14 33,33 22,38 65,115 116,205 337,609 584,475 867,708 31,25 55,47 74,66 86,-30 168,-63 188,-99 85,-160 204,-349 379,-517 127,-122 283,-232 414,-312zm-3904 1217c-35,-23 -47,-69 -15,-133 43,-83 185,-198 257,-264 158,-146 319,-312 497,-433 100,-67 163,-55 173,5 14,26 34,68 51,118 21,59 40,130 64,213 25,83 55,179 112,314 57,136 140,311 240,481 38,64 78,128 116,190l-1162 0c-68,-97 -147,-201 -205,-283 -69,-97 -110,-164 -128,-208zm3382 -106c40,-11 82,-24 126,-37 29,19 56,44 80,68 83,84 156,190 224,286 20,29 59,37 88,18 29,-19 36,-58 17,-88l-1 -1c-73,-103 -150,-214 -239,-304 -8,-8 -17,-16 -26,-24 152,-50 308,-109 427,-171 152,-81 183,-144 138,-306 -3,-13 -7,-27 -12,-41 114,35 217,71 299,103 53,20 98,40 137,59l-13 46c-32,107 -68,209 -111,312 -69,163 -149,325 -239,477 -37,65 -81,132 -124,200l-116 0 -2518 0c0,-4 -1,-8 -3,-12 -39,-63 -79,-126 -117,-190 -89,-153 -170,-315 -238,-478 -43,-103 -80,-205 -111,-312 -8,-27 -16,-55 -24,-82 37,-14 80,-28 131,-43 115,-36 270,-81 441,-126 -3,8 -6,16 -10,24 -31,76 -84,118 -122,186 -35,61 -85,194 -50,260 35,66 157,50 219,52 121,3 267,36 387,55 92,15 185,30 278,44 -80,85 -150,187 -217,281l-1 2c-20,29 -12,68 17,87 29,20 68,12 87,-17 68,-96 141,-203 225,-287 14,-15 30,-29 47,-43 352,49 582,101 924,2zm2295 108c35,-23 47,-69 14,-133 -42,-83 -184,-198 -256,-264 -159,-145 -319,-311 -497,-432 -100,-68 -163,-55 -174,4 -14,27 -33,68 -51,119 -21,58 -39,129 -64,212 -24,84 -55,179 -111,315 -57,135 -141,311 -240,480 -38,64 -77,127 -115,188l1163 0c67,-96 145,-199 203,-281 69,-96 110,-163 128,-208zm-3823 -1311c77,-27 301,-13 424,-20 123,-7 57,-2 76,-3 48,120 54,304 59,378 4,75 2,63 3,91 -67,42 -124,90 -168,142 -94,-87 -168,-196 -253,-349 -38,-69 -76,-137 -115,-206 -8,-14 -15,-26 -26,-33zm1352 282c-17,-99 4,-226 45,-358 210,13 360,58 472,93 67,21 120,38 166,66 -134,81 -268,178 -384,285 -76,-38 -200,-71 -299,-86z"/>
   <path class="fil3" d="M7163 4110c46,-47 87,-86 142,-90 55,-4 126,26 152,85 26,58 8,145 -39,243 -46,98 -121,206 -173,305 -52,99 -82,188 -129,234 -47,46 -112,48 -159,24 -47,-24 -76,-76 -63,-188 13,-111 67,-284 120,-398 52,-113 104,-168 149,-215z"/>
   <path class="fil4" d="M7163 4110c46,-47 87,-86 142,-90 55,-4 126,26 152,85 26,58 8,145 -39,243 -46,98 -121,206 -173,305 -52,99 -82,188 -129,234 -47,46 -112,48 -159,24 -47,-24 -76,-76 -63,-188 13,-111 67,-284 120,-398 52,-113 104,-168 149,-215z"/>
   <path class="fil3" d="M5659 5357c23,57 104,112 209,136 105,24 203,9 248,-32 -58,22 -147,24 -241,3 -95,-22 -173,-62 -216,-107zm-1050 -1708c-27,-40 -55,-71 -97,-84l-5 -2c-60,134 -114,264 -150,396 24,79 55,162 75,237 30,108 39,201 75,256 36,55 99,72 150,59 154,544 547,559 678,1071 37,142 32,319 9,456 -13,80 -31,145 -39,200 207,185 387,168 586,331 7,6 14,12 20,18 44,-8 84,-21 120,-41 65,-36 108,-80 124,-132 17,-51 7,-110 9,-225 3,-115 19,-287 122,-432 182,-256 384,-221 642,-420 352,-273 418,-584 332,-984 7,-31 15,-61 22,-91 -31,72 -71,142 -129,190 -125,102 -328,102 -467,88 -129,-12 -203,-36 -256,-85 -8,4 -17,6 -25,8 120,-110 -15,-253 -155,-206 17,-14 39,-25 63,-29l-4 -17c-20,-87 -26,-172 -25,-246 0,-29 2,-56 4,-81l-215 -27c-3,18 -6,37 -9,56 -14,75 -38,158 -76,240 -38,83 -90,164 -156,210 -66,47 -146,58 -288,43l-7 -1c-2,40 -17,84 -43,127 10,3 22,8 38,16 59,25 170,74 290,104 119,30 248,40 386,37 138,-2 287,-18 364,-30 77,-12 84,-19 84,-19 0,0 -7,7 -44,32 -37,25 -105,68 -144,113 -39,45 -49,93 -51,136 -2,43 4,83 7,102 3,20 3,19 -56,35 -59,17 -178,50 -324,32 -146,-17 -320,-85 -436,-167 -117,-82 -177,-177 -210,-224 -20,-29 -30,-39 -31,-47 -56,28 -113,31 -151,1 -10,-9 -19,-20 -25,-32l0 0c61,50 181,3 267,-103 30,-37 52,-77 65,-115 -140,-16 -329,-59 -427,-181 -103,-127 -107,-341 -123,-460 -16,-120 -46,-145 -67,-160 -22,-16 -36,-21 -50,-26 1,-34 3,-68 4,-90 1,-21 1,-29 76,-43 75,-14 225,-33 378,-41 153,-7 309,-2 437,30 128,33 227,94 278,145 51,50 54,91 54,144 0,11 -1,23 -1,35l220 27 1 -6c10,-51 21,-90 80,-129 59,-38 166,-77 295,-83 129,-7 280,19 426,56 118,30 232,68 308,96 5,-34 9,-68 12,-102l0 -3 0 -3 0 -6 1 -6 0 -3 0 -4 0 -6 1 -6 0 -1 0 -5 0 -7 0 -6 0 0 0 -6 1 -6 0 -5 0 -2c0,-10 0,-20 -1,-31l0 -2 0 -4 0 -12 0 0 0 -2 0 -5 -1 -6 0 -6 0 0 -1 -18 0 -1 -2 -12 0 -4 -2 -17 0 -4 -2 -13 0 -1 -2 -17 -1 -1 -2 -17 -1 -2 -2 -12 -1 -4 -3 -15 0 -2c-3,-12 -6,-24 -9,-35l0 -1c-7,-27 -16,-54 -26,-82 -40,39 -82,77 -125,116 43,-83 87,-165 55,-260 -20,-61 -70,-126 -149,-195 16,86 10,142 5,199 -52,-119 -105,-238 -197,-339 -172,-107 -401,-215 -633,-245 -244,-32 -490,22 -697,84 -21,7 -42,13 -63,20 26,9 51,17 76,23 94,22 183,17 273,12 -39,14 -78,28 -152,42 -75,15 -184,30 -291,20 -44,-4 -88,-12 -128,-22 -79,28 -146,50 -199,60 -76,15 -124,6 -161,-14 20,37 38,69 51,90 26,42 35,41 20,114 -14,72 -52,219 -116,352 -64,134 -156,254 -179,386 -23,133 22,278 30,378 5,65 -6,112 -31,122l0 -4 0 -1 -1 -7 0 0 0 -4 0 -3 0 0 0 -4 -1 -3 0 -1 0 -4 0 -2 0 -1 -2 -19 0 -1 -1 -11 -1 -3 0 -1 0 -3 0 -3 0 -1 -1 -4 0 -2 0 -2 -1 -3 0 -2 0 -2 0 -4 -1 -1 0 -3 0 -3 0 -1 -1 -3 0 -4 0 0 -1 -3 0 -3 -1 -5 0 -2 0 -1 -1 -6 0 -2 -1 -3 0 -2 0 -2 -1 -4 0 0 0 -3 -1 -4 0 0 0 -3 -1 -3 0 -1 -1 -3 0 -3 0 -1 -1 -3 0 -2 0 -2 -1 -3 0 -2 0 -2 -1 -3 0 -1 -1 -3 0 -3 0 0 -1 -4 0 -3 0 0 -1 -3 -1 -3 0 -1 0 -3 -1 -2 0 -1 -1 -3 0 -2 0 -2 -1 -3 0 -1 -1 -2 0 -3 0 -1 -1 -2 -1 -4c-26,-122 -64,-187 -99,-243l0 0 0 -1 -1 0 0 -1 0 0 0 0 -1 -1 0 -1 0 0 -1 -1 0 0 0 0 0 -1 -1 0 0 -1 0 0 0 0 -1 -1 0 0 0 -1 -1 0 0 -1 0 0 0 -1 -1 0 0 -1 0 0 -1 -1 0 0 0 0 0 -1 -1 0 0 -1 0 0 0 0 -1 -1 0 0 0 -1 -1 -1 0 0 0 -1 -1 0 0 -1 0 0 0 0 -1 -1 0 0 0 -1 -1 0 0 -1 0 0 0 0 -1 -1 0 0 0 -1 -1 0 0 0 0 -1 0 0 -1 -1 0 0 0 -1 0 0 -1 -1 0 0 -1 -1 0 0 0 0 0 -1 -1 0 0 -1 0 0 0 0 -1 -1 0 0 0 -1zm-1310 3083c147,-28 303,-118 385,-225 81,-107 89,-230 90,-333 1,-102 -4,-185 16,-250 20,-64 65,-111 111,-157 46,-47 94,-94 117,-139 24,-45 23,-89 -25,-116 -47,-28 -142,-39 -230,-16 -88,23 -170,80 -215,126 -45,45 -54,79 -61,105 -7,27 -12,47 -66,-15 -53,-63 -155,-207 -227,-274 -72,-67 -116,-57 -146,-34 -30,24 -47,61 -45,101 2,40 22,83 34,109 12,25 14,34 -9,21 -24,-13 -74,-47 -114,-58 -40,-12 -70,-1 -94,17 -24,17 -42,43 -44,70 -1,27 13,57 22,74 9,17 11,21 -2,17 -13,-5 -43,-19 -74,-20 -32,-1 -66,10 -97,29 -30,20 -57,48 -57,80 0,33 26,71 26,84 0,13 -27,2 -57,-3 -30,-5 -63,-3 -86,21 -24,23 -38,68 -11,152 27,85 96,209 176,315 80,105 170,191 285,252 114,60 251,95 398,67zm5095 0c-147,-28 -303,-118 -385,-225 -82,-107 -89,-230 -90,-333 -1,-102 4,-185 -16,-250 -20,-64 -65,-111 -111,-157 -47,-47 -94,-94 -117,-139 -24,-45 -23,-89 25,-116 47,-28 142,-39 230,-16 88,23 170,80 215,126 45,45 54,79 61,105 7,27 12,47 66,-15 53,-63 154,-207 227,-274 72,-67 116,-57 146,-34 30,24 47,61 45,101 -2,40 -23,83 -34,109 -12,25 -14,34 9,21 24,-13 74,-47 114,-58 40,-12 70,-1 94,17 24,17 42,43 44,70 1,27 -14,57 -22,74 -9,17 -11,21 2,17 13,-5 43,-19 74,-20 32,-1 66,10 97,29 30,20 57,48 57,80 0,33 -26,71 -26,84 0,13 27,2 57,-3 30,-5 62,-3 86,21 24,23 38,68 11,152 -27,85 -96,209 -176,315 -80,105 -171,191 -285,252 -114,60 -252,95 -398,67zm-2603 -2823c-64,-103 -201,-166 -315,-189 -53,-11 -104,-19 -139,-23l-1 0c-30,-4 -50,-6 -63,-6 -15,-1 -23,0 -31,1 -15,1 -26,15 -24,30 1,15 15,26 30,24 6,0 12,-1 22,-1 15,59 41,114 78,145 42,35 100,37 128,16 26,-19 49,-76 57,-117 14,4 29,9 42,13 42,14 79,30 114,48 34,18 68,38 102,59zm695 500c6,-9 10,-20 13,-31 14,-63 -35,-129 -111,-148 -4,-12 -7,-24 -10,-36 -17,-74 -24,-151 -23,-228 0,-59 7,-118 18,-176 8,-41 12,-58 49,-82 70,-46 178,-68 260,-73 131,-6 277,23 404,55 89,23 161,49 214,72 65,29 70,30 -6,248 -43,122 -82,301 -187,387 -103,85 -288,85 -414,72 -67,-6 -152,-16 -207,-60zm-1441 -657c18,131 20,318 107,425 86,106 271,143 400,157 75,8 173,16 239,-30 57,-40 102,-118 131,-181 33,-71 56,-147 70,-223 12,-59 18,-120 18,-180 1,-42 0,-61 -32,-92 -61,-60 -164,-105 -245,-126 -130,-33 -282,-34 -415,-28 -94,5 -171,16 -229,29 -70,15 -76,16 -44,249zm130 -474c20,-12 41,-23 61,-31 90,-40 196,-63 295,-63 112,1 232,32 337,72 63,25 158,67 210,112 1,1 1,1 2,2 -24,20 -56,40 -83,56 -2,2 -9,6 -13,7 -7,0 -32,-11 -38,-14 -92,-44 -173,-93 -272,-124 -100,-30 -202,-37 -306,-35 -64,2 -129,5 -193,18zm1971 308c-9,-17 -20,-32 -29,-46 -45,-62 -105,-112 -168,-137 -70,-29 -154,-32 -231,-21 -47,7 -119,23 -164,52 -1,0 -1,0 -1,1 9,25 23,53 35,75 1,3 5,9 6,10 5,3 24,-2 29,-3 70,-18 134,-44 205,-46 72,-3 137,18 202,47 40,19 80,39 116,68zm-597 418c82,-78 210,-95 308,-83 46,6 89,15 119,22l0 0c26,5 42,10 52,13 13,5 19,8 25,11 11,6 16,22 10,36 -5,14 -19,20 -31,14 -5,-2 -10,-5 -18,-8 -10,-3 -25,-7 -49,-13l0 0c-26,-6 -65,-14 -108,-19 -31,55 -72,103 -113,121 -44,18 -89,4 -107,-29 -11,-22 -11,-52 -6,-85 -27,6 -54,13 -82,20z"/>
   <circle class="fil4" transform="matrix(-7.69394 -1.74693 -1.74693 7.69395 5127.39 4258.05)" r="17"/>
   <circle class="fil4" transform="matrix(-7.69394 -1.74693 -1.74693 7.69395 7026.57 4492.63)" r="17"/>
   <path class="fil5" d="M4404 3660c18,4 36,7 62,26 26,18 61,52 92,144 32,91 61,241 75,335 14,95 12,133 9,139 -3,5 -8,-21 -18,-45 -10,-24 -24,-45 -39,-58 -16,-13 -31,-17 -43,-7 -12,9 -20,34 -29,58 -23,-74 -46,-148 -69,-222"/>
   <path class="fil6" d="M5744 5118c16,82 86,149 193,164 90,13 172,1 238,-93 -156,35 -303,-5 -431,-71z"/>
   <path class="fil7" d="M4883 3588l-27 -12 6 -104 -219 232c13,22 26,46 39,74l201 -190z"/>
   <path class="fil2" d="M6085 2193c360,13 722,185 979,388 257,203 407,437 507,736 100,298 149,660 73,993 -75,333 -276,636 -452,921 -176,285 -327,552 -482,750 -155,198 -315,327 -359,379 -45,52 27,28 96,18 69,-10 136,-5 211,-25 74,-20 156,-64 211,-100 54,-36 80,-64 92,-106 12,-42 10,-98 99,-249 89,-150 269,-394 448,-555 179,-161 356,-239 414,-649 57,-410 -6,-1151 -165,-1741 -159,-590 -414,-1028 -654,-1312 -240,-284 -466,-413 -723,-519 -257,-106 -545,-188 -795,-218 -249,-30 -459,-9 -730,168 -270,177 -600,511 -828,852 -228,341 -353,690 -416,936 -62,246 -62,389 -33,699 28,311 86,789 204,1127 118,338 295,536 467,695 171,160 337,279 382,439 45,160 -32,360 -12,470 21,110 140,130 201,96 61,-33 64,-120 74,-262 10,-143 26,-340 -99,-635 -126,-295 -394,-687 -463,-1032 -69,-345 61,-641 207,-964 146,-323 309,-672 569,-919 260,-248 617,-394 977,-381z"/>
   <g>
    <path class="fil8" d="M5659 5357c23,57 104,112 209,136 105,24 203,9 248,-32 -58,22 -147,24 -241,3 -95,-22 -173,-62 -216,-107zm-2343 232c11,16 22,32 32,49 77,132 87,268 24,305 -61,36 -168,-33 -244,-155 71,128 79,259 17,295 -56,32 -152,-24 -227,-129 73,126 83,257 22,293 -59,34 -164,-34 -238,-153 71,97 161,149 215,118 61,-36 51,-168 -23,-295l-7 -13c7,11 14,21 21,32 72,93 160,142 213,111 64,-37 53,-174 -24,-306l-7 -13c11,16 22,32 32,49l5 9c73,100 166,153 221,121 63,-37 53,-173 -24,-305l-8 -13zm-630 486c9,14 19,28 27,43 68,117 78,237 21,270 -54,32 -150,-31 -217,-140 65,89 147,137 196,108 56,-32 47,-153 -21,-269l-6 -12zm5691 -486c-12,16 -22,32 -32,49 -77,132 -87,268 -24,305 61,36 168,-33 244,-155 -71,128 -79,259 -17,295 56,32 152,-24 226,-129 -73,126 -82,257 -21,293 59,34 164,-34 238,-153 -72,97 -161,149 -215,118 -61,-36 -51,-168 23,-295l7 -13c-7,11 -14,21 -21,32 -72,93 -160,142 -213,111 -64,-37 -53,-174 23,-306l8 -13c-11,16 -22,32 -32,49l-5 9c-73,100 -166,153 -221,121 -63,-37 -53,-173 24,-305l8 -13zm630 486c-9,14 -19,28 -28,43 -67,117 -77,237 -20,270 54,32 150,-31 217,-140 -65,89 -147,137 -196,108 -56,-32 -47,-153 21,-269l6 -12zm-2457 -1389c-36,25 -72,52 -100,84 -16,18 -28,38 -37,59 -25,9 -51,19 -77,24 -32,7 -64,9 -80,9 -17,1 -17,1 12,7 28,6 85,18 115,23 5,1 9,1 13,2 -2,8 -2,17 -3,26 -1,35 2,70 8,105 -12,4 -32,9 -39,11 -107,29 -204,44 -315,31 -141,-17 -310,-82 -426,-163 -48,-34 -85,-68 -118,-106 6,1 13,2 20,3 50,7 143,6 189,6 46,0 46,0 17,-7 -30,-6 -90,-19 -144,-34 -49,-12 -94,-26 -139,-40 -9,-13 -19,-26 -29,-41 -4,-6 -20,-26 -25,-35 1,-1 2,-3 2,-4 19,-28 44,-63 68,-88 17,-17 37,1 61,11 96,42 191,81 293,106 128,32 261,41 393,38 112,-2 229,-11 341,-27zm-759 -777c-64,-103 -201,-166 -315,-189 -53,-11 -104,-19 -139,-23l-1 0c-30,-4 -50,-6 -63,-6 -15,-1 -23,0 -31,1 -15,1 -26,15 -24,30 1,15 15,26 30,24 6,0 12,-1 22,-1 15,59 41,114 78,145 42,35 100,37 128,16 26,-19 49,-76 57,-117 14,4 29,9 42,13 42,14 79,30 114,48 34,18 68,38 102,59zm-600 712c6,12 15,23 25,32 38,30 95,27 151,-1 1,8 11,18 31,47 33,47 93,142 210,224 116,82 290,150 436,167 146,18 265,-15 324,-32 59,-16 59,-15 56,-35 -3,-19 -9,-59 -7,-102 2,-43 12,-91 51,-136 39,-45 107,-88 144,-113 37,-25 44,-32 44,-32 0,0 -7,7 -84,19 -77,12 -226,28 -364,30 -138,3 -267,-7 -386,-37 -120,-30 -231,-79 -290,-104 -16,-8 -28,-13 -38,-16 26,-43 41,-87 43,-127l7 1c142,15 222,4 288,-43 66,-46 118,-127 156,-210 38,-82 62,-165 76,-240 3,-19 6,-38 9,-56l215 27c-2,25 -4,52 -4,81 -1,74 5,159 25,246l4 17c-24,4 -46,15 -63,29 140,-47 275,96 155,206 8,-2 17,-4 25,-8 53,49 127,73 256,85 139,14 342,14 467,-88 124,-102 169,-307 208,-418 39,-112 72,-130 96,-141 24,-10 39,-12 53,-14 5,-34 10,-67 14,-88 3,-20 4,-28 -65,-56 -70,-28 -210,-77 -355,-114 -146,-37 -297,-63 -426,-56 -129,6 -236,45 -295,83 -59,39 -70,78 -80,129l-1 6 -220 -27c0,-12 1,-24 1,-35 0,-53 -3,-94 -54,-144 -51,-51 -150,-112 -278,-145 -128,-32 -284,-37 -437,-30 -153,8 -303,27 -378,41 -75,14 -75,22 -76,43 -1,22 -3,56 -4,90 14,5 28,10 50,26 21,15 51,40 67,160 16,119 20,333 123,460 98,122 287,165 427,181 -13,38 -35,78 -65,115 -86,106 -206,153 -267,103l0 0zm-45 -1892c53,-10 120,-32 199,-60 40,10 84,18 128,22 107,10 216,-5 291,-20 74,-14 113,-28 152,-42 -90,5 -179,10 -273,-12 -25,-6 -50,-14 -76,-23 21,-7 42,-13 63,-20 207,-62 453,-116 697,-84 232,30 461,138 633,245 92,101 145,220 197,339 5,-57 11,-113 -5,-199 79,69 129,134 149,195 32,95 -12,177 -55,260 43,-39 85,-77 125,-116 50,135 62,268 53,401 13,-40 23,-88 31,-137 19,-124 18,-255 8,-338 -1,-7 -2,-13 -3,-19 7,-9 15,-17 21,-26 -96,-197 -228,-364 -417,-514 -257,-203 -619,-375 -979,-388 -360,-13 -717,133 -977,381 -260,247 -423,596 -569,919 -11,24 -21,47 -32,70l5 2c53,16 84,63 118,118 35,56 73,121 99,243 15,67 26,150 31,231 25,-10 36,-57 31,-122 -8,-100 -53,-245 -30,-378 23,-132 115,-252 179,-386 64,-133 102,-280 116,-352 15,-73 6,-72 -20,-114 -13,-21 -31,-53 -51,-90 37,20 85,29 161,14zm1340 1680c6,-9 10,-20 13,-31 14,-63 -35,-129 -111,-148 -4,-12 -7,-24 -10,-36 -17,-74 -24,-151 -23,-228 0,-59 7,-118 18,-176 8,-41 12,-58 49,-82 70,-46 178,-68 260,-73 131,-6 277,23 404,55 89,23 161,49 214,72 65,29 70,30 -6,248 -43,122 -82,301 -187,387 -103,85 -288,85 -414,72 -67,-6 -152,-16 -207,-60zm-1441 -657c18,131 20,318 107,425 86,106 271,143 400,157 75,8 173,16 239,-30 57,-40 102,-118 131,-181 33,-71 56,-147 70,-223 12,-59 18,-120 18,-180 1,-42 0,-61 -32,-92 -61,-60 -164,-105 -245,-126 -130,-33 -282,-34 -415,-28 -94,5 -171,16 -229,29 -70,15 -76,16 -44,249zm130 -474c20,-12 41,-23 61,-31 90,-40 196,-63 295,-63 112,1 232,32 337,72 63,25 158,67 210,112 1,1 1,1 2,2 -24,20 -56,40 -83,56 -2,2 -9,6 -13,7 -7,0 -32,-11 -38,-14 -92,-44 -173,-93 -272,-124 -100,-30 -202,-37 -306,-35 -64,2 -129,5 -193,18zm1971 308c-9,-17 -20,-32 -29,-46 -45,-62 -105,-112 -168,-137 -70,-29 -154,-32 -231,-21 -47,7 -119,23 -164,52 -1,0 -1,0 -1,1 9,25 23,53 35,75 1,3 5,9 6,10 5,3 24,-2 29,-3 70,-18 134,-44 205,-46 72,-3 137,18 202,47 40,19 80,39 116,68zm-597 418c82,-78 210,-95 308,-83 46,6 89,15 119,22l0 0c26,5 42,10 52,13 13,5 19,8 25,11 11,6 16,22 10,36 -5,14 -19,20 -31,14 -5,-2 -10,-5 -18,-8 -10,-3 -25,-7 -49,-13l0 0c-26,-6 -65,-14 -108,-19 -31,55 -72,103 -113,121 -44,18 -89,4 -107,-29 -11,-22 -11,-52 -6,-85 -27,6 -54,13 -82,20zm-2095 -318c19,13 30,30 45,52 15,21 31,51 47,96 14,40 27,92 39,145 15,67 28,137 35,188 4,29 7,52 9,71 -4,-7 -8,-13 -12,-19 -7,-11 -16,-21 -24,-28 -9,-8 -20,-13 -29,-15 -11,-2 -21,0 -30,7l-1 1c-7,7 -13,16 -19,28l0 0c-22,-21 -61,-153 -73,-194 -13,70 41,211 59,237 1,4 4,8 9,10 6,2 14,-2 16,-8 5,-13 9,-25 13,-34 4,-9 8,-15 12,-19l0 0c3,-2 6,-3 9,-2 5,1 11,4 17,9 7,6 14,14 20,23 6,9 11,18 16,29l0 1c4,9 7,19 10,27 2,9 5,16 8,21 1,1 1,1 2,2 1,1 2,1 2,2l0 0 1 0c8,4 14,3 19,-6 2,-5 5,-22 3,-55l-1 0c-1,-22 -4,-52 -10,-91 -8,-53 -20,-123 -35,-190 -12,-54 -26,-107 -40,-149 -17,-47 -34,-79 -50,-102 -12,-17 -33,-40 -60,-55l-7 18zm176 626c1,1 1,1 2,2l-2 -2z"/>
   </g>
  </g>
 </g>
</svg>