<?xml version="1.0" encoding="UTF-8"?>
<!DOCTYPE svg PUBLIC "-//W3C//DTD SVG 1.1//EN" "http://www.w3.org/Graphics/SVG/1.1/DTD/svg11.dtd">
<!-- Creator: CorelDRAW X7 -->
<svg xmlns="http://www.w3.org/2000/svg" xmlns:xlink="http://www.w3.org/1999/xlink" xml:space="preserve" version="1.1" style="shape-rendering:geometricPrecision; text-rendering:geometricPrecision; image-rendering:optimizeQuality; fill-rule:evenodd; clip-rule:evenodd" viewBox="2440.18 853.17 6812.52 6560.83">
 <defs>
  <style type="text/css">
   <![CDATA[
    .fil6 {fill:black}
    .fil2 {fill:#1E2935}
    .fil7 {fill:#4F4B4B}
    .fil1 {fill:#E5A289}
    .fil4 {fill:#E6B39A}
    .fil3 {fill:#F2F2F2}
    .fil0 {fill:white}
    .fil5 {fill:#1E2935;fill-rule:nonzero}
   ]]>
  </style>
 </defs>
 <g id="Layer_x0020_1">
  <metadata id="CorelCorpID_0Corel-Layer"/>
  <g id="_2391579300048">
   <path class="fil0" d="M6237 5951c160,-206 345,-405 538,-579 228,-207 476,-387 730,-561 8,-5 25,-16 43,-28 -14,0 -25,0 -32,-1 -220,-6 -442,-12 -662,-25 -142,-9 -217,-7 -205,-168 11,-150 31,-311 67,-458 33,-135 82,-258 145,-381 54,-106 104,-180 228,-205 69,-15 152,-13 224,-12 106,1 211,4 317,1 267,-9 541,-45 808,-33 195,8 375,47 542,150 127,79 239,189 266,341 24,138 -22,281 -51,414 -37,168 -66,243 -151,401 -195,363 -423,726 -642,1076 -204,328 -419,676 -655,983l-165 548 -4475 0c-207,-607 -375,-1259 -492,-1889 -74,-403 -138,-834 -168,-1243 -13,-180 -9,-260 26,-428 28,-134 45,-282 123,-399 86,-128 234,-183 382,-202 212,-29 444,22 650,73 326,80 741,198 1045,337 169,77 273,138 284,330 6,112 5,226 18,337 20,174 -17,225 -196,287 -248,85 -581,130 -844,172 -19,3 -112,17 -139,28 8,24 45,83 54,97 161,262 314,528 438,810 20,46 39,92 58,139 27,-5 53,-10 80,-15 434,-76 812,-79 1248,-11 189,30 377,69 563,114z"/>
   <path class="fil1" d="M6719 4350c-8,-2 -15,-5 -23,-9 -80,147 -169,249 -263,330l9 1c89,15 176,19 261,9 -15,-17 -14,-44 -10,-89 4,-58 13,-147 26,-242z"/>
   <path class="fil2" d="M6255 6000c134,-176 331,-398 549,-596 271,-245 574,-453 726,-557 152,-103 152,-103 -13,-108 -164,-5 -493,-15 -660,-26 -167,-10 -172,-20 -164,-121 7,-101 27,-294 65,-450 38,-157 94,-279 142,-372 48,-94 89,-160 197,-183 109,-22 286,-2 534,-10 248,-7 567,-43 805,-33 238,10 395,66 521,145 127,78 223,179 246,311 22,131 -28,293 -51,397 -23,104 -18,149 -147,390 -129,240 -392,675 -640,1073 -248,397 -480,756 -657,986l-171 568 -4384 0c-206,-601 -379,-1274 -495,-1897 -85,-462 -148,-966 -167,-1238 -20,-273 3,-312 25,-416 22,-104 42,-273 116,-383 75,-111 204,-164 351,-184 148,-20 314,-7 634,72 321,79 795,224 1038,335 242,110 252,187 258,292 6,105 7,239 19,340 11,102 34,171 -167,240 -201,69 -625,137 -837,171 -212,34 -212,34 -116,191 97,156 289,470 436,805 25,56 48,114 71,171 38,-8 77,-15 115,-22 424,-74 785,-81 1234,-11 188,30 392,73 587,120z"/>
   <path class="fil0" d="M5084 6841c-244,24 -353,14 -587,-53 -239,-69 -558,-168 -776,-283 -180,-95 -220,-177 -167,-369 44,-158 127,-375 219,-511 93,-137 188,-171 340,-219 225,-70 423,-108 660,-110 320,-3 639,49 957,68 103,5 202,4 304,4 61,0 134,0 191,24 114,47 157,180 187,289 33,121 57,269 105,382 33,80 92,129 134,203 44,77 100,230 55,314 -46,87 -182,69 -265,71 -132,3 -294,40 -425,61 -307,49 -623,98 -932,129z"/>
   <path class="fil2" d="M6198 5429c-86,-30 -217,-7 -470,-22 -19,-1 -40,-2 -60,-4 -54,134 -82,291 -89,420 -2,35 -3,68 -4,99 75,47 138,101 186,158 104,-96 186,-217 280,-387 42,-76 85,-151 128,-227 9,-16 16,-29 29,-37zm-1830 408c84,-43 184,-74 294,-91 20,-110 33,-256 -12,-402 -233,15 -400,65 -524,104 -74,23 -133,42 -184,73 148,90 297,197 426,316z"/>
   <path class="fil3" d="M5054 5744c491,64 856,358 817,656 -39,297 -749,365 -1239,301 -490,-64 -575,-237 -536,-534 39,-298 468,-487 958,-423z"/>
   <path class="fil4" d="M6928 3453c51,-52 95,-95 157,-99 61,-4 139,30 168,95 29,65 8,161 -43,269 -52,108 -136,229 -194,338 -58,109 -91,208 -144,259 -52,50 -124,53 -176,26 -52,-28 -84,-84 -69,-208 14,-124 75,-316 134,-441 59,-126 116,-187 167,-239z"/>
   <path class="fil0" d="M5081 6814c-42,5 -84,8 -127,11 -10,0 -18,-7 -18,-17 -11,-184 -12,-204 148,-336 94,-77 188,-120 298,-165 341,-140 477,-285 659,-614 42,-76 85,-151 128,-227 12,-22 22,-39 48,-45 4,-1 8,0 12,2 94,48 132,171 158,265 33,122 57,271 105,385 36,84 94,131 136,206 39,68 94,215 55,288 -38,73 -173,56 -243,58 -133,3 -296,40 -428,61 -307,49 -622,98 -931,128z"/>
   <path class="fil0" d="M4743 6786c-4,-2 -8,-4 -12,-7 -65,-39 -164,-101 -241,-102 -35,-1 -69,11 -99,28 -42,24 -81,57 -115,92 -92,93 -173,211 -249,317 -21,32 -64,41 -96,20 -33,-22 -41,-65 -19,-98l1 -1c80,-115 166,-237 264,-336 44,-44 92,-86 147,-116 52,-29 108,-46 168,-45 112,1 217,66 310,121 32,17 46,55 32,89 -14,36 -55,53 -91,38zm371 11c-36,15 -77,-2 -91,-38 -14,-33 0,-72 32,-88 93,-56 198,-121 310,-122 60,-1 116,17 168,46 55,30 103,71 147,115 98,99 183,222 265,337l1 1c21,32 13,76 -20,97 -32,21 -75,13 -96,-19 -76,-107 -157,-225 -249,-318 -34,-34 -73,-68 -115,-91 -30,-17 -64,-29 -99,-29 -77,1 -176,64 -240,102 -5,3 -9,5 -13,7z"/>
   <path class="fil0" d="M5273 6665c31,74 -268,134 -311,157 -3,2 -5,2 -8,3 -185,11 -271,-11 -450,-63 -234,-67 -557,-168 -771,-280 -169,-90 -203,-159 -154,-339 43,-155 126,-370 216,-503 33,-49 71,-91 121,-123 5,-4 12,-4 18,-1 162,98 326,216 463,348 174,168 309,365 423,578 44,80 418,143 453,223z"/>
   <path class="fil3" d="M5054 5743c491,65 857,358 817,656 -39,298 -749,365 -1239,301 -490,-64 -575,-236 -536,-534 39,-298 468,-487 958,-423z"/>
   <path class="fil5" d="M4242 6662c-18,15 -35,31 -52,48 -90,90 -176,212 -263,334l-1 2 0 0 0 0c-16,24 -10,56 14,72 25,16 57,10 73,-14l0 0 0 0c84,-119 168,-237 251,-320 33,-34 66,-62 99,-83 54,17 104,32 146,44 207,60 269,72 444,61 38,-2 80,-5 127,-10 124,-12 288,-33 453,-56 20,16 40,34 61,55 83,84 167,202 250,320l0 0 0 0c16,24 49,31 73,15 24,-16 30,-49 15,-73l-1 0 0 0 -1 -1c-86,-122 -173,-244 -262,-334l-1 -1c126,-19 246,-37 342,-53 253,-40 337,-59 431,-62 93,-2 197,11 228,-48 31,-59 -9,-190 -55,-271 -45,-81 -96,-111 -136,-208 -41,-96 -71,-258 -107,-387 -33,-122 -72,-215 -149,-254 -18,4 -24,14 -37,36 -24,42 -72,127 -127,227 -375,675 -648,526 -962,784 -34,28 -61,53 -81,74 -96,-34 -187,-70 -209,-110 -95,-177 -227,-387 -420,-573 -141,-135 -314,-257 -460,-345 -41,27 -78,64 -115,118 -86,127 -172,349 -213,498 -41,148 -38,222 145,319 117,62 317,135 500,196z"/>
   <path class="fil1" d="M3910 3153c-52,-1 -108,19 -141,62 -42,57 -44,155 -18,272 19,85 53,180 83,272 22,-74 51,-150 87,-227 0,-130 -7,-256 -11,-379z"/>
   <path class="fil4" d="M4084 2268c-248,374 -165,798 -163,1264 -191,411 -196,763 118,1145 229,278 457,290 590,611 76,182 51,372 26,497 -26,125 -51,186 -46,246 5,59 41,117 103,173 216,194 732,146 834,-45 39,-72 24,-183 33,-336 8,-153 47,-346 121,-491 267,-521 696,-440 996,-991 52,27 124,24 176,-26 53,-51 86,-150 144,-259 58,-109 142,-230 194,-338 51,-108 72,-204 43,-269 -29,-65 -107,-99 -168,-95 -49,4 -87,31 -126,68 12,-85 23,-176 33,-272 30,-312 -38,-603 -150,-842 -111,-239 -265,-426 -475,-555 -210,-129 -476,-200 -764,-227 -289,-26 -600,-9 -870,113 -269,121 -472,362 -649,629z"/>
   <g>
    <path class="fil6" d="M5405 5010c-38,56 -140,96 -259,96 -120,0 -221,-40 -260,-96 57,37 152,62 260,62 107,0 202,-25 259,-62zm1573 -3417c-32,-81 -72,-169 -123,-246 -99,-149 -237,-257 -341,-319 -104,-62 -172,-78 -241,-94 71,64 141,127 202,201 -121,-78 -252,-147 -382,-193 -328,-117 -652,-94 -872,-67 -220,26 -337,57 -481,124 -144,67 -316,171 -452,179 -135,9 -234,-77 -283,-120 -49,-43 -49,-43 -60,-6 -10,37 -30,110 5,186 36,76 127,154 173,193 45,40 45,40 20,60 -26,20 -76,61 -127,144 -50,84 -101,210 -72,350 11,53 33,109 63,166 -2,6 -5,12 -7,19 -32,88 -65,229 -75,368 -4,55 -4,109 0,156 23,-146 68,-287 155,-420 34,51 71,103 108,155 -27,-100 -54,-199 4,-294 36,-61 107,-120 209,-175 -38,90 -47,152 -55,214 86,-115 172,-231 296,-317 212,-74 487,-134 744,-110 272,25 526,144 734,262 21,12 42,24 62,36 -29,4 -59,6 -87,7 -107,0 -202,-27 -298,-54 39,25 77,49 154,83 77,34 192,77 309,93 49,7 98,8 144,8 78,49 146,89 201,114 78,34 132,36 177,24 -30,34 -57,65 -77,84 -39,39 -48,36 -50,118 -2,82 2,250 39,410 37,160 107,312 99,461 -7,149 -92,294 -125,400 -22,70 -21,123 3,140 26,-86 58,-173 90,-241 59,-126 116,-187 167,-239 51,-52 95,-95 157,-99 26,-2 55,3 81,14 34,-81 64,-165 89,-254 48,-173 75,-365 41,-542 -34,-177 -129,-338 -178,-430 -35,-67 -46,-97 -61,-101 6,-23 12,-50 16,-80 12,-89 12,-209 -95,-368zm-322 1525c-78,-33 -235,-91 -398,-137 -164,-45 -334,-78 -480,-74 -146,4 -268,45 -336,87 -68,43 -81,86 -93,143 -3,13 -5,25 -8,39l-244 -25 0 -7c2,-58 -1,-102 -55,-159 -54,-56 -161,-124 -299,-163 -137,-38 -307,-47 -473,-43 -167,5 -330,22 -412,36 -82,13 -82,22 -84,45 -1,23 -4,60 -7,98 15,5 31,11 54,28 23,17 55,46 69,176 15,130 14,362 123,503 109,141 329,190 483,210 142,18 228,11 297,-29 8,5 17,10 26,15 -103,-149 78,-271 218,-185 -15,-20 -37,-37 -62,-48l9 -17c43,-89 71,-178 88,-259 6,-31 11,-61 15,-89l239 24c-2,20 -3,41 -4,63 -3,84 3,180 23,278 21,98 57,199 117,265 60,66 144,98 300,117l8 1c-9,55 2,125 35,192 6,13 13,25 21,37 -113,45 -228,88 -360,110 -66,10 -136,16 -206,17 -80,1 -157,-3 -226,-10 -63,-8 -119,-18 -167,-30 -49,-13 -90,-29 -124,-47 -66,-35 -106,-82 -146,-129 6,144 310,252 431,266 71,8 152,12 232,11 73,-2 147,-7 216,-18 144,-24 266,-72 388,-120 60,66 135,95 192,67 14,-6 26,-16 35,-28l0 0c-78,39 -195,-41 -262,-177 -24,-47 -38,-96 -43,-140 156,16 370,16 506,-90 143,-113 199,-343 246,-468 47,-125 85,-146 112,-157 28,-11 44,-13 60,-15 7,-37 14,-75 18,-98 4,-23 6,-32 -72,-66zm536 366c-77,4 -97,25 -136,60 -22,20 -46,48 -74,93 -25,40 -52,93 -78,147 -33,69 -63,141 -84,195 -12,29 -20,54 -27,74 6,-6 12,-12 17,-18 11,-10 23,-18 34,-24 12,-6 24,-10 35,-9 12,0 23,5 30,15l1 1c6,9 11,21 13,35l1 0c29,-17 103,-150 127,-192 -4,79 -97,219 -123,242 -2,4 -6,8 -11,8 -8,1 -15,-5 -16,-12 -2,-15 -4,-29 -6,-40 -2,-10 -5,-18 -8,-23l-1 -1c-2,-3 -5,-4 -8,-4 -6,0 -13,2 -21,6 -9,5 -18,11 -27,20 -9,8 -17,17 -24,27l-1 1c-6,9 -12,19 -17,27 -5,9 -9,16 -14,21 -1,0 -2,1 -3,1 -1,1 -2,1 -3,2l0 0 0 0c-10,3 -16,-1 -19,-11 -2,-6 0,-25 10,-60l0 0c7,-23 18,-55 34,-97 21,-55 52,-127 84,-196 27,-56 55,-110 80,-151 30,-47 56,-78 80,-98 29,-26 93,-70 155,-39zm-418 649c-1,0 -2,1 -3,1l3 -1zm-2030 -350c-71,33 -164,23 -238,14 -140,-18 -340,-63 -431,-180 -92,-118 -90,-322 -106,-464 -29,-254 -23,-255 53,-270 64,-12 148,-22 250,-25 145,-4 310,1 450,40 88,25 199,75 263,142 34,35 35,55 33,101 -2,66 -10,131 -23,195 -18,83 -45,164 -82,241 -6,11 -12,23 -19,36 -87,2 -156,61 -156,133 0,12 2,25 6,37zm1719 -357c-51,136 -100,338 -220,432 -119,94 -328,89 -471,72 -83,-10 -191,-25 -251,-91 -52,-57 -81,-152 -97,-228 -18,-84 -25,-172 -22,-258 3,-67 11,-133 25,-199 10,-46 16,-65 58,-91 80,-50 202,-73 295,-76 149,-4 313,32 456,72 100,28 180,59 240,87 72,33 79,35 -13,280zm-1789 -147c33,14 67,32 101,50 -69,-105 -204,-155 -313,-165 -50,-5 -99,-6 -133,-6l0 0c-29,0 -48,1 -60,2 -14,1 -22,3 -29,5 -14,4 -23,20 -20,36 2,17 16,27 30,24 6,-2 12,-4 22,-5 11,-1 28,-2 55,-2l0 0c81,1 269,27 347,61zm1546 84c11,2 18,5 25,7 16,5 33,-3 38,-19 6,-16 -3,-33 -19,-39 -8,-2 -16,-5 -33,-8 -14,-3 -35,-6 -70,-10l0 0c-39,-3 -96,-8 -156,-9 -129,-2 -293,31 -387,127 42,-14 84,-27 124,-38 134,-35 335,-38 478,-11zm218 -481c-19,-19 -39,-35 -57,-49 -88,-66 -197,-117 -304,-140 -122,-27 -259,-23 -382,-5 -75,11 -187,34 -255,69 0,1 -1,1 -2,1 21,28 51,58 75,82 3,2 9,9 13,10 8,3 37,-4 45,-6 110,-25 209,-58 324,-67 115,-8 228,10 339,38 70,17 139,37 204,67zm-2205 -151c14,-16 29,-31 42,-43 65,-56 141,-95 215,-107 84,-14 175,4 255,34 49,19 123,54 165,96 0,1 1,1 1,2 -16,25 -38,52 -57,73 -2,2 -7,8 -9,9 -5,1 -25,-8 -30,-11 -71,-36 -135,-80 -211,-100 -76,-21 -152,-14 -229,2 -48,10 -96,22 -142,45z"/>
   </g>
   <path class="fil7" d="M6675 3282l44 -130 190 321c-20,20 -40,43 -61,70l-173 -261z"/>
   <path class="fil1" d="M6250 3807c13,0 27,2 40,6 -15,17 -30,32 -47,45 -38,30 -85,50 -135,62 14,-65 72,-113 142,-113zm108 48c23,26 37,60 37,97 0,81 -65,146 -145,146 -63,0 -117,-40 -137,-96 66,-15 128,-40 179,-80 25,-19 46,-42 66,-67zm-2219 -261c80,0 146,66 146,146l-1 8c-83,-28 -161,-69 -209,-131l-4 -6c20,-10 44,-17 68,-17zm120 229c-27,37 -70,62 -120,62 -80,0 -145,-65 -145,-145 0,-27 7,-52 20,-74 59,75 149,124 245,157zm1111 692c-36,84 -128,139 -248,130 -101,-9 -187,-42 -235,-160 161,76 329,69 483,30z"/>
  </g>
 </g>
</svg>
